# xmcd
#
# Track frame offsets: 
#        150
#        19344
#        34993
#        50700
#        75254
#        92409
#        123404
#        140133
#        168320
#        198177
#        212842
#
# Disc length: 3111 seconds
#
# Revision: 1
# Processed by: cddbd v1.5.2PL0 Copyright (c) Steve Scherf et al.
# Submitted via: ExactAudioCopy v0.99pb4
#
DISCID=940c250b
DTITLE=Lucky Peterson - Every second a fool is born
DYEAR=2011
DGENRE=Blues
TTITLE0=Ain't Going To Boss Me
TTITLE1=I Can Do Better By Myself
TTITLE2=Changing Ways
TTITLE3=Every Second a Fool is Born
TTITLE4=Baby Please
TTITLE5=Love me
TTITLE6=After the Dance
TTITLE7=My Baby Changed
TTITLE8=Running Down the Railroad
TTITLE9=Have Mercy on us
TTITLE10=Lucky's Blues
EXTD=
EXTT0=
EXTT1=
EXTT2=
EXTT3=
EXTT4=
EXTT5=
EXTT6=
EXTT7=
EXTT8=
EXTT9=
EXTT10=
PLAYORDER=
